<svg width="35" height="35" viewBox="0 0 35 35" fill="none" xmlns="http://www.w3.org/2000/svg">
<g clip-path="url(#clip0_148_199)">
<path d="M17.427 17.9261C17.9901 18.9078 18.2679 20.0268 18.2291 21.1574C18.251 22.3776 17.9383 23.5805 17.3249 24.6362C16.9533 25.2965 16.4582 25.8795 15.8666 26.3538C15.1964 26.8952 14.4065 27.2695 13.5624 27.4454C12.6038 27.6487 11.6257 27.7463 10.6458 27.7365H1.45825V5.87409H11.3458C12.3522 5.7956 13.3625 5.96723 14.2863 6.37362C15.21 6.78002 16.0185 7.40853 16.6395 8.20298C17.2819 9.19395 17.6074 10.3564 17.5728 11.5362C17.6296 12.6845 17.2955 13.8182 16.6249 14.753C16.1958 15.2683 15.6645 15.6895 15.0645 15.9902C16.0503 16.3474 16.884 17.0305 17.427 17.9261V17.9261Z" stroke="black" stroke-linecap="round" stroke-linejoin="round"/>
<path d="M5.83325 14.6074H10.2083C10.9592 14.6396 11.705 14.4686 12.3666 14.1125C12.6305 13.9224 12.8395 13.6663 12.9726 13.3698C13.1058 13.0734 13.1583 12.7472 13.1249 12.4241C13.1655 12.0434 13.0807 11.6598 12.8834 11.3315C12.686 11.0032 12.3868 10.7481 12.0312 10.6047C11.2528 10.3599 10.441 10.2371 9.62492 10.2408H5.83325V14.6074ZM13.1249 20.6189C13.1609 20.192 13.0621 19.7645 12.8424 19.3965C12.6227 19.0284 12.2932 18.7382 11.8999 18.5666C11.2866 18.3309 10.6317 18.222 9.97492 18.2463H5.83325V23.3408H9.902C10.5701 23.3739 11.2374 23.2596 11.8562 23.006C12.2832 22.7811 12.6325 22.4332 12.8588 22.0074C13.0851 21.5817 13.1778 21.0979 13.1249 20.6189Z" stroke="black" stroke-linecap="round" stroke-linejoin="round"/>
<path d="M34.9707 20.4297C34.9707 20.1968 34.9707 19.9493 34.9707 19.7019C35.0619 17.6766 34.3462 15.6976 32.9798 14.1975C31.6135 12.6974 29.7077 11.7981 27.6791 11.6963C25.6504 11.7981 23.7447 12.6974 22.3783 14.1975C21.012 15.6976 20.2962 17.6766 20.3874 19.7019C20.2962 21.7272 21.012 23.7061 22.3783 25.2063C23.7447 26.7064 25.6504 27.6056 27.6791 27.7074C29.0648 27.6705 30.4112 27.2402 31.5606 26.4668C32.71 25.6934 33.6147 24.609 34.1686 23.3408H30.2457C29.9687 23.7669 29.5942 24.1211 29.153 24.3742C28.7117 24.6272 28.2165 24.772 27.7082 24.7963C25.8707 24.7963 24.3687 22.8895 24.1207 20.4297H34.9707ZM27.6791 14.6074C28.461 14.693 29.1968 15.0192 29.7848 15.5408C30.3727 16.0624 30.7835 16.7535 30.9603 17.5185H24.3978C24.5763 16.7492 24.9915 16.055 25.5851 15.5329C26.1788 15.0109 26.9211 14.6873 27.7082 14.6074H27.6791Z" stroke="black" stroke-linecap="round" stroke-linejoin="round"/>
<path d="M32.0833 5.87408H23.3333V8.7852H32.0833V5.87408Z" stroke="black" stroke-linecap="round" stroke-linejoin="round"/>
</g>
<defs>
<clipPath id="clip0_148_199">
<rect width="35" height="34.9333" fill="white" transform="translate(0 0.0333252)"/>
</clipPath>
</defs>
</svg>
