<svg width="35" height="35" viewBox="0 0 35 35" fill="none" xmlns="http://www.w3.org/2000/svg">
<path d="M24.8208 2.18332H10.1792C5.76549 2.18332 2.1875 5.75449 2.1875 10.1598V24.7735C2.1875 29.1788 5.76549 32.75 10.1792 32.75H24.8208C29.2345 32.75 32.8125 29.1788 32.8125 24.7735V10.1598C32.8125 5.75449 29.2345 2.18332 24.8208 2.18332Z" stroke="black" stroke-linecap="round" stroke-linejoin="round"/>
<path d="M17.5001 25.4722C21.9299 25.4722 25.5209 21.888 25.5209 17.4666C25.5209 13.0453 21.9299 9.46109 17.5001 9.46109C13.0703 9.46109 9.47925 13.0453 9.47925 17.4666C9.47925 21.888 13.0703 25.4722 17.5001 25.4722Z" stroke="black" stroke-linecap="round" stroke-linejoin="round"/>
<path d="M26.2499 8.00554C26.6526 8.00554 26.9791 7.67971 26.9791 7.27777C26.9791 6.87582 26.6526 6.54999 26.2499 6.54999C25.8472 6.54999 25.5208 6.87582 25.5208 7.27777C25.5208 7.67971 25.8472 8.00554 26.2499 8.00554Z" stroke="black" stroke-linecap="round" stroke-linejoin="round"/>
</svg>
