<svg width="35" height="35" viewBox="0 0 35 35" fill="none" xmlns="http://www.w3.org/2000/svg">
<g clip-path="url(#clip0_148_205)">
<path d="M17.5001 0.794419C14.4586 0.794723 11.4745 1.62055 8.8671 3.18351C6.25973 4.74646 4.12729 6.9877 2.69803 9.66731C1.26877 12.3469 0.596507 15.364 0.753201 18.3957C0.909895 21.4273 1.88965 24.3594 3.58758 26.878L0.729248 34.2722L8.35633 31.5503C10.5437 32.9754 13.0344 33.8708 15.6299 34.1652C18.2253 34.4595 20.8538 34.1447 23.3058 33.2457C25.7578 32.3468 27.9654 30.8886 29.7529 28.9874C31.5403 27.0862 32.8581 24.7945 33.6012 22.2951C34.3443 19.7956 34.4922 17.1575 34.033 14.5909C33.5738 12.0243 32.5203 9.60024 30.9565 7.51193C29.3926 5.42362 27.3616 3.72879 25.0254 2.56253C22.6891 1.39626 20.1122 0.790808 17.5001 0.794419V0.794419Z" stroke="black" stroke-linecap="round" stroke-linejoin="round"/>
<path d="M13.8542 21.1722C15.75 23.0644 19.9354 25.5389 21.875 25.5389C22.7259 25.5476 23.5536 25.2626 24.218 24.7321C24.8824 24.2016 25.3427 23.4582 25.5209 22.6277V21.1722C25.5209 21.1722 23.7271 20.2989 22.6042 19.7166C21.4813 19.1344 19.6875 21.1722 19.6875 21.1722C18.3227 20.7284 17.0763 19.982 16.0417 18.9889C15.0467 17.9562 14.2988 16.7122 13.8542 15.35C13.8542 15.35 15.8959 13.5596 15.3125 12.4389C14.7292 11.3181 13.8542 9.52774 13.8542 9.52774H12.3959C11.5639 9.7056 10.819 10.165 10.2875 10.8282C9.75598 11.4913 9.47042 12.3174 9.4792 13.1666C9.4792 15.1025 11.9584 19.28 13.8542 21.1722Z" stroke="black" stroke-linecap="round" stroke-linejoin="round"/>
</g>
<defs>
<clipPath id="clip0_148_205">
<rect width="35" height="34.9333" fill="white" transform="translate(0 0.0666504)"/>
</clipPath>
</defs>
</svg>
